<svg width="254" height="162" viewBox="0 0 254 162" fill="none" xmlns="http://www.w3.org/2000/svg">
<path d="M252.104 127.012C239.132 132.134 227.656 132.501 213.982 129.413C211.866 129.732 214.62 131.468 215.304 132.01C221.57 136.627 231.784 136.758 239.848 136.38C220.294 146.894 195.399 155.886 172.754 153.525C146.461 151.275 119.284 133.777 116.632 108.066C132.928 102.716 149.443 93.3961 157.852 78.8471C166.77 59.1782 144.851 49.1914 127.057 61.0975C112.626 70.7562 105.062 87.3876 104.463 103.735C36.1225 116.428 -8.32569 61.2449 6.06143 1.49383C6.08224 1.42096 6.08683 1.34492 6.07493 1.27034C6.06303 1.19576 6.03489 1.12421 5.99222 1.06007C5.94955 0.995934 5.89324 0.940549 5.82675 0.897302C5.76026 0.854054 5.68498 0.823854 5.6055 0.808545C5.52906 0.788846 5.44916 0.783497 5.37048 0.792805C5.29179 0.802113 5.2159 0.825894 5.14723 0.86276C5.07855 0.899625 5.01848 0.948834 4.97052 1.00751C4.92256 1.06619 4.88767 1.13316 4.8679 1.20452C-13.1266 63.2299 33.631 121.676 104.887 110.842C107.18 129.884 121.734 146.185 139.86 154.482C172.14 169.722 214.541 159.448 241.782 139.21C241.084 142.632 239.009 145.696 238.296 149.104C237.465 153.094 239.083 160.401 241.039 158.145C241.912 154.339 243.097 150.601 244.586 146.964C246.021 143.263 247.767 139.123 249.386 135.491L249.712 134.806L252.921 127.842C252.975 127.733 252.993 127.611 252.974 127.493C252.954 127.374 252.897 127.263 252.809 127.175C252.722 127.086 252.608 127.023 252.483 126.994C252.357 126.966 252.225 126.972 252.104 127.012ZM124.444 78.4961C135.462 58.8987 160.582 62.2154 146.094 80.6575C138.147 89.3528 128.01 96.0894 116.584 100.268C117.37 92.5465 120.06 85.0967 124.444 78.4961Z" fill="#231F20"/>
<path d="M15.7661 91.5539C15.8187 91.4945 15.8864 91.4484 15.9631 91.4197C16.0399 91.391 16.1231 91.3806 16.2053 91.3896C16.2874 91.3986 16.3659 91.4266 16.4333 91.4711C16.5008 91.5155 16.5552 91.575 16.5915 91.6441C23.3017 104.196 38.3455 113.235 51.6914 114.186C51.8113 114.193 51.9238 114.242 52.0058 114.324C52.0879 114.405 52.1333 114.513 52.1329 114.624C52.1315 114.736 52.0901 114.845 52.0153 114.933C51.9405 115.02 51.8365 115.083 51.7195 115.11C36.3623 118.592 20.7799 105 15.6396 92.4163C15.5797 92.2728 15.5626 92.1169 15.59 91.9652C15.6175 91.8134 15.6885 91.6713 15.7956 91.5539L15.7661 91.5539Z" fill="#231F20"/>
<path d="M159.708 50.343C168.495 49.4525 173.926 59.7775 169.759 66.5351C169.732 66.5815 169.689 66.6181 169.638 66.639C169.586 66.6599 169.528 66.6639 169.473 66.6503C169.418 66.6368 169.37 66.6064 169.337 66.5643C169.303 66.5221 169.286 66.4706 169.287 66.4181C169.297 59.7569 166.58 53.4066 159.648 50.7948C159.594 50.7773 159.548 50.7432 159.518 50.698C159.487 50.6528 159.475 50.5993 159.482 50.5465C159.489 50.4937 159.515 50.4446 159.556 50.4076C159.597 50.3706 159.651 50.3478 159.708 50.343Z" fill="#231F20"/>
<path d="M14.1072 87.3686C13.4081 87.4241 12.7119 87.235 12.1549 86.8386C11.733 86.556 11.4125 86.1619 11.2353 85.7076C11.0651 85.2677 11.0426 84.7902 11.171 84.3383C11.3429 83.7248 11.7143 83.1755 12.2347 82.7653C12.8576 82.9246 13.4391 83.2004 13.9433 83.5757C14.2839 83.8266 14.5421 84.1611 14.6887 84.5412C14.8353 84.9213 14.8645 85.3319 14.773 85.7266C14.6318 86.2993 14.4078 86.8517 14.1072 87.3686Z" fill="#231F20"/>
<path d="M168.772 70.8811C168.779 70.8424 168.799 70.8068 168.83 70.7796C168.86 70.7523 168.899 70.7348 168.941 70.7295C168.983 70.7243 169.026 70.7315 169.063 70.7502C169.1 70.769 169.13 70.7982 169.148 70.8337C169.35 71.2072 169.467 71.6151 169.492 72.0323C169.523 72.5966 169.437 73.1612 169.239 73.6955C169.042 74.2275 168.733 74.718 168.331 75.1386C168.036 75.4544 167.674 75.7103 167.268 75.8901C167.231 75.9048 167.19 75.9089 167.15 75.9019C167.11 75.8948 167.073 75.877 167.044 75.8507C167.015 75.8243 166.995 75.7906 166.986 75.7537C166.978 75.7168 166.981 75.6784 166.996 75.6432C167.181 75.2875 167.329 74.9591 167.477 74.6308C167.676 74.1861 167.846 73.7413 168.016 73.2966C168.187 72.8518 168.342 72.4071 168.483 71.9281C168.587 71.5996 168.683 71.2643 168.772 70.8811Z" fill="#231F20"/>
<path d="M165.057 145.168C176.484 147.848 192.928 147.305 203.46 142.248C203.483 142.233 203.51 142.227 203.537 142.232C203.564 142.237 203.588 142.251 203.604 142.272C203.62 142.293 203.626 142.318 203.621 142.343C203.616 142.368 203.6 142.391 203.578 142.405C194.516 149.779 175.478 150.537 164.991 145.346C164.97 145.335 164.954 145.318 164.946 145.297C164.937 145.276 164.937 145.253 164.945 145.232C164.953 145.211 164.968 145.193 164.989 145.181C165.009 145.17 165.034 145.165 165.057 145.168Z" fill="#231F20"/>
<path d="M175.58 132.691C167.321 135.681 160.014 135.894 151.307 134.09C149.96 134.276 151.713 135.29 152.149 135.606C156.139 138.303 162.643 138.38 167.777 138.16C155.327 144.298 139.477 149.548 125.058 148.167C108.316 146.851 91.0101 136.63 89.3197 121.616C99.6953 118.493 110.211 113.052 115.564 104.556C121.24 93.0708 107.283 87.2372 95.9539 94.1885C86.7664 99.8278 81.9512 109.539 81.571 119.086C38.058 126.493 9.75226 94.264 18.9082 59.3723C18.9215 59.3298 18.9244 59.2854 18.9168 59.2418C18.9092 59.1982 18.8913 59.1565 18.8641 59.119C18.8369 59.0815 18.8011 59.0492 18.7588 59.0239C18.7164 58.9987 18.6685 58.981 18.6179 58.9721C18.5692 58.9606 18.5183 58.9575 18.4682 58.9629C18.4181 58.9683 18.3698 58.9822 18.3261 59.0037C18.2824 59.0252 18.2441 59.054 18.2136 59.0882C18.183 59.1225 18.1608 59.1616 18.1482 59.2033C6.69554 95.4228 36.4719 129.557 81.8417 123.236C83.3033 134.356 92.5714 143.877 104.113 148.724C124.668 157.625 151.665 151.629 169.009 139.813C168.565 141.811 167.243 143.6 166.79 145.591C166.261 147.921 167.291 152.188 168.537 150.87C169.092 148.648 169.847 146.465 170.795 144.341C171.708 142.18 172.819 139.763 173.85 137.641L174.057 137.242L176.1 133.175C176.135 133.112 176.146 133.041 176.134 132.971C176.121 132.902 176.085 132.837 176.029 132.786C175.973 132.734 175.901 132.697 175.821 132.68C175.741 132.663 175.657 132.667 175.58 132.691ZM94.2916 104.349C101.306 92.9052 117.3 94.844 108.077 105.613C103.018 110.69 96.5638 114.623 89.2889 117.062C89.7888 112.553 91.5005 108.203 94.2916 104.349Z" fill="#E66F51"/>
<path d="M15.7666 91.5538C15.8191 91.4944 15.8869 91.4482 15.9636 91.4195C16.0403 91.3908 16.1236 91.3805 16.2058 91.3895C16.2879 91.3985 16.3663 91.4265 16.4338 91.4709C16.5013 91.5154 16.5557 91.5749 16.5919 91.644C23.3022 104.196 38.3459 113.234 51.6919 114.185C51.8118 114.193 51.9242 114.242 52.0063 114.324C52.0884 114.405 52.1338 114.513 52.1334 114.624C52.132 114.736 52.0906 114.845 52.0158 114.932C51.941 115.02 51.837 115.083 51.72 115.11C36.3628 118.592 20.7804 105 15.64 92.4162C15.5802 92.2727 15.5631 92.1168 15.5905 91.965C15.618 91.8133 15.689 91.6712 15.7961 91.5538L15.7666 91.5538Z" fill="#E66F51"/>
<path d="M159.708 50.3432C168.495 49.4526 173.926 59.7776 169.759 66.5353C169.732 66.5816 169.689 66.6182 169.638 66.6391C169.586 66.66 169.528 66.664 169.473 66.6505C169.418 66.6369 169.37 66.6066 169.337 66.5644C169.303 66.5222 169.286 66.4707 169.287 66.4182C169.297 59.757 166.58 53.4067 159.648 50.7949C159.594 50.7775 159.548 50.7433 159.518 50.6981C159.487 50.6529 159.475 50.5995 159.482 50.5466C159.489 50.4938 159.515 50.4447 159.556 50.4077C159.597 50.3707 159.651 50.3479 159.708 50.3432Z" fill="#E66F51"/>
<path d="M14.1072 87.3687C13.4081 87.4242 12.7119 87.2352 12.1549 86.8387C11.733 86.5561 11.4125 86.162 11.2353 85.7077C11.0651 85.2678 11.0426 84.7903 11.171 84.3384C11.3429 83.7249 11.7143 83.1756 12.2347 82.7654C12.8576 82.9247 13.4391 83.2005 13.9433 83.5758C14.2839 83.8267 14.5421 84.1612 14.6887 84.5413C14.8353 84.9214 14.8645 85.332 14.773 85.7267C14.6318 86.2994 14.4078 86.8518 14.1072 87.3687Z" fill="#E66F51"/>
<path d="M168.772 70.8809C168.78 70.8423 168.8 70.8067 168.83 70.7795C168.861 70.7522 168.9 70.7347 168.942 70.7294C168.984 70.7241 169.026 70.7314 169.063 70.7501C169.1 70.7688 169.13 70.7981 169.148 70.8336C169.35 71.2071 169.467 71.615 169.493 72.0321C169.524 72.5965 169.438 73.1611 169.24 73.6953C169.042 74.2274 168.734 74.7179 168.331 75.1385C168.037 75.4543 167.675 75.7102 167.269 75.89C167.231 75.9047 167.19 75.9087 167.15 75.9017C167.11 75.8947 167.073 75.8769 167.044 75.8506C167.015 75.8242 166.995 75.7905 166.987 75.7536C166.978 75.7167 166.982 75.6782 166.996 75.6431C167.181 75.2874 167.329 74.959 167.477 74.6306C167.677 74.1859 167.847 73.7412 168.017 73.2965C168.187 72.8517 168.343 72.407 168.483 71.9279C168.587 71.5995 168.683 71.2642 168.772 70.8809Z" fill="#E66F51"/>
<path d="M165.057 145.168C176.484 147.849 192.928 147.305 203.46 142.248C203.483 142.233 203.51 142.228 203.537 142.232C203.564 142.237 203.588 142.251 203.604 142.272C203.62 142.293 203.626 142.319 203.621 142.344C203.616 142.369 203.6 142.391 203.578 142.405C194.516 149.779 175.478 150.538 164.991 145.346C164.97 145.335 164.954 145.318 164.946 145.297C164.937 145.276 164.937 145.253 164.945 145.232C164.953 145.211 164.968 145.193 164.989 145.181C165.009 145.17 165.034 145.165 165.057 145.168Z" fill="#E66F51"/>
<g clip-path="url(#clip0_89_1397)">
<path d="M53.6287 85.409L41.2205 75.3424L42.5601 71.9293C42.604 71.8142 42.6061 71.6889 42.5662 71.5725C42.5263 71.4561 42.4464 71.3551 42.3389 71.2848L40.3209 69.981C40.3163 69.8427 40.2772 69.7073 40.2068 69.5853C40.1363 69.4634 40.0364 69.3582 39.915 69.2781C39.7001 69.1394 39.4348 69.0855 39.1773 69.1284C38.9197 69.1714 38.6911 69.3076 38.5418 69.5071C38.3924 69.7066 38.3345 69.9531 38.3808 70.1923C38.427 70.4315 38.5737 70.6439 38.7885 70.7827C39.0495 70.9513 39.3608 70.9726 39.6413 70.8913L41.2802 71.9502L35.71 86.1522C35.0623 86.2796 34.4911 86.6312 34.1122 87.1355C33.9158 87.3974 33.7769 87.6927 33.7034 88.0045C33.6299 88.3163 33.6234 88.6386 33.6841 88.9528C33.7449 89.267 33.8717 89.567 34.0573 89.8357C34.243 90.1043 34.4839 90.3364 34.7661 90.5185C35.3361 90.887 36.0402 91.0302 36.7237 90.9166C37.4072 90.8031 38.0141 90.4421 38.411 89.9129C38.5235 89.7605 38.6163 89.5962 38.6874 89.4235L42.2973 91.7558C42.1483 91.8783 42.015 92.0164 41.9002 92.1673C41.0745 93.27 41.3693 94.7848 42.5567 95.5519C43.7441 96.3191 45.3733 96.0475 46.199 94.9447C46.5956 94.4152 46.7496 93.7611 46.6271 93.126C46.5046 92.491 46.1156 91.9272 45.5456 91.5584C44.9258 91.158 44.1852 91.0481 43.5008 91.184L38.8451 88.176C38.7957 87.846 38.6734 87.5291 38.486 87.245C38.2985 86.961 38.0499 86.716 37.7557 86.5254C37.5078 86.3652 37.2388 86.2616 36.9641 86.1902L37.1566 85.6978L46.6708 91.8449C47.0417 92.0742 47.4847 92.1811 47.9287 92.1484C48.3728 92.1158 48.7921 91.9454 49.1193 91.6647L53.6844 87.6036C53.7636 87.5322 53.8353 87.4538 53.8983 87.3696C54.1234 87.07 54.2205 86.7033 54.1707 86.3409C54.121 85.9784 53.9275 85.6467 53.6287 85.409ZM43.9178 93.7352C43.8668 93.702 43.8319 93.6515 43.8207 93.5946C43.8095 93.5377 43.8229 93.479 43.8579 93.4312C43.9351 93.3319 44.0812 93.3076 44.1875 93.3763C44.2938 93.445 44.3201 93.5806 44.2465 93.6814C44.2104 93.7284 44.1558 93.7602 44.0946 93.7701C44.0334 93.78 43.9705 93.7672 43.9194 93.7344L43.9178 93.7352ZM48.4793 89.944L49.5287 89.768L48.6045 90.5913L48.4793 89.944ZM43.1495 78.376L43.3539 79.4412L41.9271 79.6791L41.6687 78.3524L42.8714 78.1513L43.1495 78.376ZM45.8582 80.5737L45.9642 81.1277L44.5374 81.3656L44.279 80.0389L45.0409 79.9108L45.8582 80.5737ZM39.9249 78.6426L40.8862 78.4834L41.1417 79.81L39.7149 80.0479L39.6017 79.4686L39.926 78.6424L39.9249 78.6426ZM40.2405 77.8396L40.589 76.95L40.7451 77.7565L40.2405 77.8396ZM46.7586 85.2371L45.3318 85.475L45.0734 84.1483L46.5029 83.9095L46.7586 85.2371ZM47.2856 83.7795L48.7146 83.5413L48.9701 84.8679L47.5424 85.107L47.2856 83.7795ZM44.9343 83.4201L44.6759 82.0934L46.1054 81.8545L46.3609 83.1812L44.9343 83.4201ZM44.149 83.551L42.7221 83.7889L42.4644 82.4626L43.8939 82.2238L44.149 83.551ZM42.3246 81.734L42.0662 80.4073L43.4957 80.1684L43.7512 81.4951L42.3246 81.734ZM41.5393 81.8649L40.1124 82.1028L39.8541 80.7761L41.2836 80.5372L41.5393 81.8649ZM39.0721 80.9065L39.3276 82.2331L38.4609 82.3771L39.0358 80.9109L39.0723 80.9048L39.0721 80.9065ZM38.145 83.1817L39.469 82.961L39.7245 84.2876L38.2976 84.5255L38.073 83.3645L38.145 83.1817ZM40.2527 82.8308L41.6809 82.5911L41.9384 83.919L40.5115 84.1569L40.2538 82.8306L40.2527 82.8308ZM42.0797 84.6469L42.3365 85.9744L40.9084 86.2114L40.6507 84.8851L42.0797 84.6469ZM42.8628 84.5163L44.2923 84.2775L44.5478 85.6041L43.121 85.842L42.8628 84.5163ZM44.6886 86.3315L44.946 87.6594L43.5192 87.8973L43.2624 86.5698L44.6886 86.3315ZM45.473 86.2018L46.9012 85.9621L47.1586 87.29L45.7318 87.5279L45.473 86.2018ZM47.6851 85.833L49.1133 85.5933L49.3708 86.9212L47.9439 87.1591L47.6851 85.833ZM49.8973 85.4642L51.3255 85.2245L51.5805 86.5544L50.1527 86.7935L49.8957 85.465L49.8973 85.4642ZM49.7552 84.7359L49.5261 83.5486L50.7801 84.5656L49.7552 84.7359ZM48.5746 82.8142L47.1468 83.0533L46.8894 81.7254L47.2101 81.672L48.5666 82.7731L48.5746 82.8142ZM44.1405 79.3111L44.1094 79.1561L44.2739 79.2894L44.1412 79.3115L44.1405 79.3111ZM41.5299 77.6262L41.4007 76.9584L42.1051 77.5303L41.5299 77.6262ZM39.8684 85.0171L40.108 86.2552L38.5356 85.2393L39.8684 85.0171ZM42.4781 86.7032L42.7172 87.9419L41.1435 86.9252L42.4781 86.7032ZM45.0878 88.3893L45.3277 89.6295L43.7528 88.6119L45.0878 88.3893ZM45.8702 88.2584L47.2997 88.0195L47.5552 89.3461L46.1284 89.584L45.8702 88.2584ZM48.0824 87.8896L49.5114 87.6513L49.7678 88.9767L48.3397 89.2164L48.0813 87.8897L48.0824 87.8896ZM50.5523 88.847L50.2945 87.5208L51.7223 87.2817L51.8112 87.7383L50.5671 88.844L50.5511 88.8472L50.5523 88.847ZM52.9199 86.3311L52.3669 86.4233L52.2343 85.747L52.847 86.2436C52.8786 86.2712 52.9005 86.3015 52.921 86.3309L52.9199 86.3311ZM36.1284 88.7015C36.081 88.667 36.0497 88.6169 36.0407 88.5616C36.0318 88.5063 36.046 88.4499 36.0804 88.404C36.1148 88.358 36.1667 88.3261 36.2257 88.3146C36.2846 88.3031 36.3461 88.313 36.3974 88.3422C36.4446 88.3767 36.4759 88.4266 36.4848 88.4817C36.4936 88.5368 36.4795 88.593 36.4453 88.6388C36.411 88.6846 36.3592 88.7164 36.3004 88.7279C36.2417 88.7393 36.1805 88.7295 36.1293 88.7003L36.1284 88.7015ZM47.352 90.9365L46.3622 90.297L47.6973 90.0744L47.8821 91.03C47.683 91.0541 47.4746 91.0274 47.352 90.9365Z" fill="black"/>
</g>
<defs>
<clipPath id="clip0_89_1397">
<rect width="24.8559" height="24.222" fill="white" transform="matrix(0.839939 0.542681 -0.59933 0.800502 40.0277 66.0543)"/>
</clipPath>
</defs>
</svg>
