<svg width="155" height="73" viewBox="0 0 155 73" fill="none" xmlns="http://www.w3.org/2000/svg">
        <g filter="url(#filter0_d_89_1414)">
        <path d="M26.9345 17.592L27.0425 17.52H37.1225H47.1665L47.3105 17.628C47.3825 17.724 47.4185 17.82 47.4185 17.916L46.3745 26.124C46.3745 26.244 46.3265 26.34 46.2305 26.412L46.1225 26.52H45.5105C45.0785 26.52 44.8265 26.496 44.7545 26.448C44.6345 26.376 44.5985 26.088 44.6465 25.584C44.6465 25.536 44.6465 25.476 44.6465 25.404C44.7665 24.42 44.8265 23.604 44.8265 22.956C44.7545 21.516 44.2745 20.568 43.3865 20.112C42.9545 19.92 42.5105 19.788 42.0545 19.716C41.3825 19.596 39.8945 19.548 37.5905 19.572C35.2865 19.572 34.0745 19.644 33.9545 19.788L31.7945 28.284H33.7025C35.2865 28.26 36.3065 28.164 36.7625 27.996C37.2905 27.828 37.7225 27.528 38.0585 27.096C38.3945 26.664 38.7065 25.884 38.9945 24.756C39.0905 24.444 39.1745 24.252 39.2465 24.18L39.3545 24.072H39.9665C40.4705 24.072 40.7705 24.156 40.8665 24.324C40.8905 24.42 40.5065 26.088 39.7145 29.328C38.8745 32.616 38.4425 34.272 38.4185 34.296C38.3705 34.44 38.0825 34.512 37.5545 34.512H36.9425L36.7985 34.404C36.7025 34.284 36.7025 34.008 36.7985 33.576C37.0865 32.352 37.1225 31.512 36.9065 31.056C36.7385 30.696 36.2585 30.468 35.4665 30.372C35.3225 30.348 34.5785 30.336 33.2345 30.336L31.2905 30.3L30.1025 35.016C29.3105 38.208 28.9145 39.816 28.9145 39.84C28.9145 39.864 28.9385 39.9 28.9865 39.948H35.5025C36.9185 39.876 38.1305 39.612 39.1385 39.156C39.7385 38.844 40.2785 38.472 40.7585 38.04C41.6945 37.104 42.6905 35.364 43.7465 32.82C43.9385 32.316 44.0825 32.016 44.1785 31.92L44.2865 31.812H44.9345H45.5825L45.6905 31.92C45.7865 32.016 45.7865 32.208 45.6905 32.496C45.5705 32.856 44.9705 34.368 43.8905 37.032C42.5705 40.2 41.9105 41.796 41.9105 41.82C41.8625 41.916 41.5145 41.964 40.8665 41.964C40.0985 41.988 36.9425 42 31.3985 42C24.5105 42 21.0185 41.928 20.9225 41.784C20.8745 41.712 20.8985 41.436 20.9945 40.956C21.1145 40.428 21.2345 40.128 21.3545 40.056C21.4745 40.008 21.9065 39.984 22.6505 39.984C23.9945 39.96 24.7505 39.864 24.9185 39.696C24.9905 39.648 25.8545 36.312 27.5105 29.688C29.1665 23.064 29.9705 19.74 29.9225 19.716C29.8745 19.668 29.7905 19.644 29.6705 19.644C29.2625 19.572 28.5665 19.536 27.5825 19.536C26.9585 19.536 26.6105 19.464 26.5385 19.32C26.4905 19.248 26.5145 18.972 26.6105 18.492C26.7305 17.988 26.8385 17.688 26.9345 17.592ZM48.7036 25.368C48.9196 25.272 49.3036 25.26 49.8556 25.332C51.0076 25.5 52.0036 25.896 52.8436 26.52C54.0196 27.456 54.4996 28.632 54.2836 30.048C54.1396 31.032 53.6596 31.848 52.8436 32.496C52.0036 33.12 51.0076 33.516 49.8556 33.684C49.3036 33.756 48.9196 33.744 48.7036 33.648C48.3196 33.456 48.1996 33.156 48.3436 32.748C48.3916 32.604 48.4876 32.496 48.6316 32.424C48.7276 32.352 48.9316 32.304 49.2436 32.28C50.6836 32.16 51.7156 31.716 52.3396 30.948C52.8196 30.348 52.9876 29.712 52.8436 29.04C52.6516 28.32 52.1476 27.732 51.3316 27.276C50.7796 26.988 50.0836 26.808 49.2436 26.736C48.9316 26.712 48.7276 26.664 48.6316 26.592C48.2716 26.376 48.1876 26.076 48.3796 25.692C48.4516 25.548 48.5596 25.44 48.7036 25.368ZM70.8341 16.656L72.7061 16.692C73.3781 16.812 74.0141 17.016 74.6141 17.304C75.2381 17.592 75.7781 18.024 76.2341 18.6C76.3301 18.696 76.3901 18.756 76.4141 18.78L77.4581 17.736C78.1541 17.04 78.5141 16.68 78.5381 16.656C78.6581 16.56 78.8981 16.56 79.2581 16.656C79.3301 16.728 79.3781 16.788 79.4021 16.836C79.4261 16.932 79.0901 18.372 78.3941 21.156C77.6741 23.988 77.2901 25.428 77.2421 25.476L77.1341 25.584H76.4861C75.9341 25.584 75.6341 25.512 75.5861 25.368C75.5621 25.296 75.5741 25.14 75.6221 24.9C75.8381 23.22 75.7061 21.84 75.2261 20.76C74.6501 19.56 73.6421 18.84 72.2021 18.6C71.6261 18.504 70.9901 18.504 70.2941 18.6C69.3821 18.792 68.5301 19.272 67.7381 20.04C66.3701 21.384 65.8181 22.812 66.0821 24.324C66.2261 25.356 66.7781 26.064 67.7381 26.448L70.2221 27.132C71.1581 27.372 72.0461 27.612 72.8861 27.852C73.5101 28.116 74.0861 28.512 74.6141 29.04C74.9981 29.424 75.3101 29.868 75.5501 30.372C76.2221 31.788 76.3421 33.36 75.9101 35.088C75.3581 37.44 74.0621 39.408 72.0221 40.992C71.8541 41.112 71.6861 41.232 71.5181 41.352C70.6781 41.856 69.9701 42.204 69.3941 42.396C68.5061 42.684 67.5941 42.816 66.6581 42.792C65.1701 42.72 63.9221 42.432 62.9141 41.928C62.4341 41.712 61.9421 41.364 61.4381 40.884L61.1141 40.56C61.0901 40.56 60.7421 40.92 60.0701 41.64L58.9541 42.756L58.5941 42.792H58.5581C58.3661 42.792 58.2341 42.756 58.1621 42.684C58.0901 42.612 58.0541 42.552 58.0541 42.504C58.0541 42.432 58.7501 39.612 60.1421 34.044C60.1901 33.9 60.4901 33.828 61.0421 33.828H61.6901L61.7981 33.936C61.8941 34.032 61.9061 34.284 61.8341 34.692C61.8341 34.74 61.8221 34.8 61.7981 34.872C61.6301 35.76 61.6061 36.504 61.7261 37.104C62.2061 39.432 63.9701 40.656 67.0181 40.776C67.6421 40.776 68.1701 40.704 68.6021 40.56C69.9461 40.128 71.0261 39.192 71.8421 37.752C72.1781 37.2 72.4061 36.624 72.5261 36.024C72.8141 34.584 72.5861 33.432 71.8421 32.568C71.6021 32.328 71.2901 32.124 70.9061 31.956L68.4221 31.272C66.5981 30.792 65.4821 30.444 65.0741 30.228C63.4421 29.292 62.5901 27.804 62.5181 25.764C62.4701 24.9 62.6021 24.012 62.9141 23.1C63.6581 20.844 65.1101 19.092 67.2701 17.844C67.5581 17.676 67.8581 17.52 68.1701 17.376C68.9861 16.992 69.7421 16.764 70.4381 16.692C70.5341 16.668 70.6661 16.656 70.8341 16.656ZM85.5832 17.232C87.5032 17.088 88.4512 17.016 88.4272 17.016C88.6432 17.016 88.7872 17.1 88.8592 17.268C88.9072 17.388 88.4872 19.188 87.5992 22.668C86.7112 26.1 86.2672 27.876 86.2672 27.996L86.5552 27.744C86.9392 27.456 87.1672 27.288 87.2392 27.24C88.4632 26.448 89.8072 26.064 91.2712 26.088C92.6392 26.16 93.6832 26.544 94.4032 27.24C95.3392 28.152 95.6632 29.484 95.3752 31.236C95.1592 32.532 94.4992 34.668 93.3952 37.644C92.9872 38.676 92.7832 39.444 92.7832 39.948C92.7832 40.428 92.9392 40.68 93.2512 40.704C93.2992 40.704 93.3592 40.704 93.4312 40.704C93.9352 40.656 94.4032 40.404 94.8352 39.948C95.5312 39.252 96.0352 38.304 96.3472 37.104C96.4672 36.744 96.5872 36.552 96.7072 36.528C96.7792 36.504 96.9952 36.492 97.3552 36.492C97.8112 36.492 98.0752 36.516 98.1472 36.564C98.1952 36.612 98.2192 36.708 98.2192 36.852C98.2192 37.26 97.9792 37.944 97.4992 38.904C97.0672 39.792 96.5392 40.524 95.9152 41.1C94.9792 41.988 93.9592 42.42 92.8552 42.396C92.2792 42.372 91.7512 42.228 91.2712 41.964C90.9352 41.796 90.6832 41.616 90.5152 41.424C90.2992 41.208 90.1312 40.98 90.0112 40.74C89.7712 40.284 89.6632 39.804 89.6872 39.3C89.6872 38.82 89.7832 38.304 89.9752 37.752C90.6952 35.856 91.1992 34.428 91.4872 33.468C92.1592 31.236 92.3512 29.676 92.0632 28.788C91.8712 28.116 91.4032 27.78 90.6592 27.78C88.6432 27.78 86.9512 28.944 85.5832 31.272L85.3312 31.632L84.1792 36.348C83.3872 39.468 82.9552 41.112 82.8832 41.28C82.6432 41.784 82.2352 42.132 81.6592 42.324C81.2752 42.42 80.8912 42.408 80.5072 42.288C80.2192 42.168 79.9912 41.952 79.8232 41.64C79.7032 41.448 79.6792 41.196 79.7512 40.884C79.8232 40.404 80.6512 36.984 82.2352 30.624C84.0112 23.592 84.8632 19.968 84.7912 19.752C84.6472 19.536 84.0352 19.428 82.9552 19.428C82.5232 19.428 82.2712 19.344 82.1992 19.176C82.1752 19.056 82.2232 18.78 82.3432 18.348C82.4392 17.892 82.5352 17.616 82.6312 17.52C82.7032 17.448 82.7752 17.412 82.8472 17.412C83.0632 17.412 83.9752 17.352 85.5832 17.232ZM108.86 26.16C109.7 26.04 110.528 26.076 111.344 26.268C113.216 26.676 114.56 27.72 115.376 29.4C116.336 31.32 116.288 33.468 115.232 35.844C115.04 36.276 114.824 36.696 114.584 37.104C113.216 39.384 111.32 40.968 108.896 41.856C108.272 42.072 107.636 42.228 106.988 42.324C106.484 42.42 105.848 42.432 105.08 42.36C105.008 42.336 104.948 42.324 104.9 42.324C103.532 42.108 102.38 41.556 101.444 40.668C100.652 39.852 100.136 38.892 99.8964 37.788C99.3924 35.628 99.8724 33.408 101.336 31.128C102.2 29.784 103.28 28.68 104.576 27.816C105.992 26.856 107.42 26.304 108.86 26.16ZM110.084 27.816C109.148 27.696 108.248 27.876 107.384 28.356C106.016 29.1 105.02 30.372 104.396 32.172C103.988 33.276 103.664 34.488 103.424 35.808C102.992 37.944 103.292 39.396 104.324 40.164C104.396 40.212 104.468 40.26 104.54 40.308C104.852 40.5 105.188 40.608 105.548 40.632C106.868 40.872 108.128 40.476 109.328 39.444C109.592 39.228 109.832 38.988 110.048 38.724C110.768 37.86 111.356 36.504 111.812 34.656C111.86 34.536 111.896 34.404 111.92 34.26C112.304 32.748 112.496 31.62 112.496 30.876C112.496 30.276 112.424 29.808 112.28 29.472C112.088 28.944 111.728 28.524 111.2 28.212C110.888 27.996 110.516 27.864 110.084 27.816ZM120.3 26.124C120.732 26.076 121.224 26.088 121.776 26.16C122.928 26.424 123.744 27 124.224 27.888L124.368 28.176L124.692 27.888C125.676 27 126.756 26.424 127.932 26.16C128.628 26.064 129.276 26.076 129.876 26.196C130.884 26.412 131.724 26.856 132.396 27.528C132.996 28.128 133.428 28.86 133.692 29.724C134.1 30.924 134.16 32.232 133.872 33.648C133.392 36.264 132.156 38.436 130.164 40.164C129.804 40.476 129.444 40.752 129.084 40.992C128.34 41.472 127.644 41.82 126.996 42.036C126.324 42.252 125.664 42.36 125.016 42.36C124.536 42.36 124.248 42.348 124.152 42.324C123.288 42.132 122.604 41.748 122.1 41.172C121.956 41.028 121.884 40.968 121.884 40.992L120.444 46.752C120.444 46.824 120.48 46.86 120.552 46.86C120.768 46.932 121.344 46.968 122.28 46.968C122.736 46.968 122.988 46.992 123.036 47.04C123.18 47.088 123.252 47.196 123.252 47.364L122.892 48.768C122.796 48.912 122.568 48.972 122.208 48.948C122.112 48.948 121.932 48.948 121.668 48.948C118.62 48.852 116.376 48.864 114.936 48.984H114.648L114.54 48.876C114.444 48.78 114.396 48.696 114.396 48.624L114.756 47.22V47.184C114.924 47.04 115.26 46.968 115.764 46.968C116.46 46.944 116.868 46.872 116.988 46.752C117.06 46.68 117.792 43.872 119.184 38.328C120.576 32.76 121.296 29.844 121.344 29.58C121.512 28.428 121.284 27.828 120.66 27.78C120.588 27.78 120.516 27.78 120.444 27.78C119.724 27.924 119.088 29.1 118.536 31.308C118.44 31.596 118.392 31.752 118.392 31.776C118.128 31.92 117.84 31.992 117.528 31.992H116.844L116.736 31.884C116.64 31.788 116.64 31.536 116.736 31.128C117.192 29.448 117.756 28.188 118.428 27.348C118.956 26.7 119.58 26.292 120.3 26.124ZM129.228 27.888C128.892 27.768 128.496 27.756 128.04 27.852C126.936 28.044 125.856 28.8 124.8 30.12L124.476 30.516L123.54 34.296C122.916 36.816 122.604 38.088 122.604 38.112C122.604 38.352 122.76 38.784 123.072 39.408C123.336 39.864 123.696 40.212 124.152 40.452C125.232 41.004 126.36 40.728 127.536 39.624C128.328 38.904 128.988 37.656 129.516 35.88C129.924 34.344 130.212 33.132 130.38 32.244C130.692 30.804 130.716 29.748 130.452 29.076C130.212 28.476 129.804 28.08 129.228 27.888Z" fill="#E66F51"/>
        </g>
        <defs>
        <filter id="filter0_d_89_1414" x="0.850342" y="0.512024" width="153.454" height="72.472" filterUnits="userSpaceOnUse" color-interpolation-filters="sRGB">
        <feFlood flood-opacity="0" result="BackgroundImageFix"/>
        <feColorMatrix in="SourceAlpha" type="matrix" values="0 0 0 0 0 0 0 0 0 0 0 0 0 0 0 0 0 0 127 0" result="hardAlpha"/>
        <feOffset dy="4"/>
        <feGaussianBlur stdDeviation="10"/>
        <feComposite in2="hardAlpha" operator="out"/>
        <feColorMatrix type="matrix" values="0 0 0 0 0 0 0 0 0 0 0 0 0 0 0 0 0 0 0.25 0"/>
        <feBlend mode="normal" in2="BackgroundImageFix" result="effect1_dropShadow_89_1414"/>
        <feBlend mode="normal" in="SourceGraphic" in2="effect1_dropShadow_89_1414" result="shape"/>
        </filter>
        </defs>
        </svg>